PathFileType	4	(X/Y/Z)	./resultDataOpenSim/trcMotMarkerGrf/sub10/qtm-02-07.trc
DataRate	CameraRate	NumFrames	NumMarkers	Units	OrigDataRate	OrigDataStartFrame	OrigNumFrames
250.000000	250.000000	9	24	m	250.000000	193	514
Frame#	Time	L.Toe.Tip			R.Toe.Tip			L.Ankle.Lat			R.Ankle.Lat			L.Ankle.Med			R.Ankle.Med			L.Heel			R.Heel			L.Knee.Lat			R.Knee.Lat			L.Knee.Med			R.Knee.Med			L.Thigh.Upper			R.Thigh.Upper			L.ASIS			R.ASIS			V.Sacral			L.Acromium			R.Acromium			C7			L.Elbow			R.Elbow			L.Wrist.Lat			R.Wrist.Lat
		X1	Y1	Z1	X2	Y2	Z2	X3	Y3	Z3	X4	Y4	Z4	X5	Y5	Z5	X6	Y6	Z6	X7	Y7	Z7	X8	Y8	Z8	X9	Y9	Z9	X10	Y10	Z10	X11	Y11	Z11	X12	Y12	Z12	X13	Y13	Z13	X14	Y14	Z14	X15	Y15	Z15	X16	Y16	Z16	X17	Y17	Z17	X18	Y18	Z18	X19	Y19	Z19	X20	Y20	Z20	X21	Y21	Z21	X22	Y22	Z22	X23	Y23	Z23	X24	Y24	Z24

193	0.768	0.014123474	0.017681068	-0.085201847	-0.69591405	0.046550686	0.033457205	-0.1189468	0.041577249	-0.12380581	-0.7170454	0.1863075	0.071983117	-0.12015094	0.062572206	-0.040113104	-0.67395193	0.16781605	-0.0024048509	-0.18712277	0.011072416	-0.086511727	-0.75008358	0.21903206	0.017400539	-0.098507192	0.43049083	-0.14799911	-0.39423556	0.3997249	0.10590969	-0.10213688	0.41098606	-0.027322744	-0.34433526	0.37185762	-0.013074543	-0.21539517	0.80273653	-0.22271837	-0.32492263	0.78613211	0.14825105	-0.18388684	0.91038897	-0.13642077	-0.23327868	0.88196	0.098166144	-0.41091005	0.90792211	-0.055381109	-0.29649415	1.3618344	-0.19036031	-0.31757875	1.363953	0.13074414	-0.39345492	1.3864603	-0.042369026	-0.41467421	1.0463815	-0.25448778	-0.34037077	1.0060185	0.15731012	-0.3384051	0.81912024	-0.28786541	-0.13121126	0.86829142	0.15513617
194	0.772	0.01417408	0.017617242	-0.085150022	-0.69083827	0.049118143	0.033467882	-0.11881169	0.041463241	-0.12381223	-0.70657672	0.19026612	0.072312786	-0.1200135	0.06246336	-0.040041341	-0.66412256	0.17075488	-0.0022617467	-0.18705508	0.011089554	-0.086591856	-0.73799345	0.22445937	0.018160669	-0.095816716	0.43008687	-0.14812336	-0.38338905	0.39906204	0.10685138	-0.10051582	0.41010228	-0.027549798	-0.33119034	0.37011701	-0.011743431	-0.20887363	0.80383005	-0.22342807	-0.31849418	0.78600926	0.14755097	-0.1784129	0.91126195	-0.13713198	-0.22753607	0.88260921	0.097577478	-0.40589952	0.90924271	-0.054066165	-0.29037181	1.3626775	-0.19086505	-0.31168178	1.3647123	0.13025846	-0.38757723	1.3871923	-0.042879718	-0.40756222	1.0468698	-0.25499709	-0.33550107	1.0070051	0.15685045	-0.33084326	0.81969969	-0.28826241	-0.12728088	0.86784706	0.15576095
195	0.776	0.014212592	0.017559678	-0.085111721	-0.68499955	0.052017018	0.033669726	-0.11869716	0.041354525	-0.12382648	-0.69587132	0.19421221	0.072566177	-0.11990499	0.062384399	-0.040006316	-0.65398905	0.17380961	-0.0021805797	-0.18697783	0.011098482	-0.08669854	-0.7257249	0.22942568	0.018414072	-0.093192007	0.42968613	-0.14824025	-0.37259692	0.39850583	0.10775435	-0.098884532	0.40923978	-0.027763958	-0.3182063	0.36892511	-0.010623466	-0.2020586	0.8049573	-0.22404233	-0.31219345	0.78601312	0.14692949	-0.17303315	0.912072	-0.13781966	-0.22180729	0.88333895	0.09703483	-0.40019075	0.91013358	-0.053862589	-0.2842601	1.3635552	-0.1913458	-0.30583085	1.3654717	0.12982471	-0.38169935	1.3879937	-0.043380736	-0.4004821	1.047411	-0.25548691	-0.33060782	1.0079666	0.15642084	-0.32321701	0.82032585	-0.2886463	-0.12338466	0.86739574	0.15647263
196	0.78	0.014235984	0.017509389	-0.085086654	-0.67825702	0.055234739	0.034120953	-0.11861081	0.041255133	-0.12385133	-0.68505295	0.19804844	0.072734126	-0.11981873	0.062333799	-0.040018611	-0.64359962	0.17696035	-0.0021470765	-0.18694347	0.011107326	-0.086774659	-0.71360833	0.23389527	0.018251576	-0.090652343	0.42930325	-0.1483587	-0.36186513	0.39809734	0.10859316	-0.097181145	0.40845192	-0.027942334	-0.30547536	0.36830785	-0.009746386	-0.19575288	0.80599082	-0.22446746	-0.30605728	0.78616909	0.14642067	-0.16770395	0.91282707	-0.13846949	-0.21611196	0.88415546	0.0965467	-0.39419021	0.91077107	-0.054296703	-0.27813072	1.3644734	-0.19179107	-0.3000295	1.3662363	0.12943605	-0.37581745	1.3888655	-0.043897845	-0.39339091	1.0479932	-0.25598793	-0.32566542	1.0089332	0.15599067	-0.31552952	0.82101048	-0.28901485	-0.1195321	0.86694666	0.1572685
197	0.784	0.01424491	0.017467761	-0.08507397	-0.67049922	0.058655452	0.034808914	-0.11855524	0.04116676	-0.12388927	-0.67426392	0.20173657	0.072756091	-0.11974803	0.062307633	-0.040075711	-0.63307186	0.1801251	-0.0021593329	-0.18695253	0.011118314	-0.086822682	-0.70181838	0.23793022	0.017785762	-0.088244495	0.42893538	-0.14850809	-0.35117488	0.3978727	0.10935619	-0.0955335	0.40775307	-0.028155342	-0.29301164	0.36821304	-0.0090694167	-0.190386	0.80686642	-0.22470125	-0.30012817	0.78648754	0.14606449	-0.16237586	0.91353724	-0.13906567	-0.21048336	0.88506497	0.096130736	-0.38821927	0.91132711	-0.054835656	-0.27196929	1.3654355	-0.1921927	-0.29427965	1.3670165	0.12908301	-0.36993849	1.389798	-0.044487657	-0.38627686	1.0486124	-0.25650082	-0.32063084	1.0099231	0.15551585	-0.30776632	0.82176767	-0.28937401	-0.11573749	0.86650664	0.15814903
198	0.788	0.01424384	0.017434692	-0.085073087	-0.66166551	0.06211582	0.035673493	-0.11852411	0.041088729	-0.12394043	-0.66354297	0.20532209	0.072588778	-0.11968921	0.062302839	-0.040163407	-0.62247294	0.18322381	-0.0022311417	-0.18698452	0.011131614	-0.086862999	-0.69036455	0.24161046	0.017098313	-0.08599534	0.42857154	-0.14871038	-0.34046294	0.39785275	0.11003515	-0.094138098	0.40712842	-0.028517243	-0.28080589	0.36854214	-0.0085517192	-0.18577592	0.80761311	-0.22480724	-0.29442488	0.7869437	0.14588835	-0.15704191	0.91420847	-0.13960456	-0.20494082	0.88606604	0.095801263	-0.38194592	0.91166044	-0.055729953	-0.26577855	1.3664395	-0.19254553	-0.28857918	1.3678208	0.12875918	-0.36406556	1.390782	-0.045179417	-0.37914546	1.0492726	-0.25703463	-0.31550683	1.010924	0.15500376	-0.29989349	0.82260891	-0.28974229	-0.11201058	0.86608113	0.15911325
199	0.792	0.014237528	0.017407911	-0.085083989	-0.65173415	0.065491664	0.036660407	-0.1185049	0.041018836	-0.12400259	-0.65280284	0.20887273	0.072252965	-0.11964147	0.062316939	-0.040262985	-0.61177741	0.18622002	-0.0023679007	-0.18702385	0.011146227	-0.086905296	-0.67915375	0.24499107	0.016256811	-0.083906819	0.42821174	-0.14896571	-0.32963006	0.39804912	0.11061546	-0.092971032	0.40658644	-0.029025034	-0.2688297	0.36919737	-0.0081573652	-0.18138831	0.80831556	-0.22485551	-0.28890565	0.78748929	0.14586935	-0.15172476	0.91484032	-0.14009175	-0.19948464	0.88714646	0.095565318	-0.37489255	0.91154109	-0.057718662	-0.25957353	1.3674783	-0.19285119	-0.28293175	1.3686491	0.1284653	-0.3581851	1.3918184	-0.04590628	-0.37200716	1.0499759	-0.25760494	-0.3103993	1.0119114	0.15455714	-0.29187808	0.82353896	-0.29013817	-0.1083534	0.86567533	0.16014975
200	0.796	0.014228721	0.017384984	-0.085107288	-0.64073121	0.068728164	0.03773803	-0.11848729	0.040954394	-0.12407277	-0.64191817	0.21240178	0.071797018	-0.11960433	0.062345356	-0.040361596	-0.60093182	0.18910752	-0.0025589991	-0.1870623	0.011159814	-0.086950247	-0.6680699	0.24809291	0.015322291	-0.081974551	0.42787292	-0.14926707	-0.31858263	0.39847911	0.11108337	-0.091808001	0.40616908	-0.029548417	-0.25700896	0.37011052	-0.0078317803	-0.17659166	0.80907362	-0.22488413	-0.28345337	0.78809447	0.14588453	-0.14644459	0.91543141	-0.14053321	-0.19410392	0.88828611	0.095423046	-0.36742986	0.91116726	-0.060751392	-0.253368	1.3685441	-0.19311712	-0.27734788	1.3694957	0.12820768	-0.35227866	1.3929116	-0.046553194	-0.36487137	1.0507169	-0.25821401	-0.30544151	1.0128821	0.15429065	-0.28373464	0.82454766	-0.29054869	-0.10476168	0.86529281	0.16124598
201	0.8	0.014217877	0.017365542	-0.085143305	-0.62876133	0.071806751	0.03887909	-0.1184701	0.040894148	-0.12414717	-0.63082639	0.21584355	0.071244551	-0.11957471	0.062381918	-0.040456464	-0.58987415	0.19189442	-0.002799555	-0.1870963	0.01117106	-0.086995593	-0.65706165	0.25089268	0.014342627	-0.080178143	0.42756618	-0.14960885	-0.30727706	0.39916731	0.11143964	-0.090508439	0.4059038	-0.029988455	-0.24525719	0.37123708	-0.0075152921	-0.17094788	0.80994454	-0.22487436	-0.27792012	0.78878128	0.14572065	-0.14121438	0.91598524	-0.14093211	-0.1887868	0.88946755	0.095371974	-0.36050853	0.91108211	-0.063572622	-0.24716245	1.3696334	-0.19335092	-0.27182758	1.37036	0.127989	-0.34635799	1.3940555	-0.047067563	-0.35774783	1.0514897	-0.25883936	-0.30066782	1.0138557	0.15421749	-0.27554135	0.82560874	-0.29091688	-0.10123412	0.86493494	0.16239962
